<?xml version="1.0" encoding="utf-8"?>
<!-- Generator: Adobe Illustrator 26.0.2, SVG Export Plug-In . SVG Version: 6.00 Build 0)  -->
<svg version="1.1" id="Capa_1" xmlns="http://www.w3.org/2000/svg" xmlns:xlink="http://www.w3.org/1999/xlink" x="0px" y="0px"
	 viewBox="0 0 727.83 842.87" style="enable-background:new 0 0 727.83 842.87;" xml:space="preserve">
<style type="text/css">
	.st0{fill:url(#SVGID_1_);}
	.st1{fill:url(#SVGID_00000057858101438767363060000010603122282714807719_);}
	.st2{fill:#EDEEF0;}
	.st3{font-family:'Cortado';}
	.st4{font-size:172.0144px;}
</style>
<g>
	<linearGradient id="SVGID_1_" gradientUnits="userSpaceOnUse" x1="96.5828" y1="435.1558" x2="637.9135" y2="435.1558">
		<stop  offset="0" style="stop-color:#FFEF26"/>
		<stop  offset="0.0178" style="stop-color:#FFEA21"/>
		<stop  offset="0.102" style="stop-color:#FED70F"/>
		<stop  offset="0.1886" style="stop-color:#FDCC04"/>
		<stop  offset="0.2809" style="stop-color:#FDC800"/>
		<stop  offset="0.6685" style="stop-color:#F18F34"/>
		<stop  offset="0.8876" style="stop-color:#E95F32"/>
		<stop  offset="1" style="stop-color:#E3312D"/>
	</linearGradient>
	<polygon class="st0" points="96.58,644.28 367.25,757.62 637.91,644.28 637.91,226.04 637.91,226.04 367.25,112.69 96.58,226.04 
		96.58,644.28 	"/>
	
		<linearGradient id="SVGID_00000055701305503131876680000017916454235335031170_" gradientUnits="userSpaceOnUse" x1="56.2638" y1="435.1554" x2="678.2324" y2="435.1554">
		<stop  offset="0" style="stop-color:#FFEF26"/>
		<stop  offset="0.0178" style="stop-color:#FFEA21"/>
		<stop  offset="0.102" style="stop-color:#FED70F"/>
		<stop  offset="0.1886" style="stop-color:#FDCC04"/>
		<stop  offset="0.2809" style="stop-color:#FDC800"/>
		<stop  offset="0.6685" style="stop-color:#F18F34"/>
		<stop  offset="0.8876" style="stop-color:#E95F32"/>
		<stop  offset="1" style="stop-color:#E3312D"/>
	</linearGradient>
	<path style="fill:url(#SVGID_00000055701305503131876680000017916454235335031170_);" d="M367.26,92.87l290.84,121.8v440.98
		L367.26,777.44L76.4,655.65V214.67L367.26,92.87 M367.26,75.45l-9.75,4.08L66.65,201.33l-10.39,4.35v8.99v440.98v8.99l10.39,4.35
		l290.85,121.79l9.75,4.08l9.75-4.08l290.84-121.79l10.39-4.35v-8.99V214.67v-8.99l-10.39-4.35L377,79.53L367.26,75.45L367.26,75.45
		z"/>
</g>
<g>
	<path class="st2" d="M549.51,379.47c-8.43-10.59-16.89-21.17-25.44-31.64c-8.49-10.54-17.18-20.88-25.77-31.33l-26.05-31.03
		l-2.56-3.05l-2.55,3.05l-17.71,21.22c-0.38,0.46-0.75,0.92-1.13,1.38c-5.05-6.43-10.26-12.69-15.46-18.95
		c-5.73-6.77-11.49-13.52-17.35-20.17c-5.79-6.71-11.76-13.22-17.64-19.83l-17.93-19.52l-2.43-2.65l-2.44,2.65l-29.17,31.61
		c-9.63,10.63-19.35,21.18-28.89,31.92c-9.6,10.67-19.11,21.44-28.59,32.24c-8.75,10.07-17.49,20.13-26.08,30.37
		c-4.14-5.08-8.3-10.14-12.43-15.22l-19.27-23.02l-2.55-3.05l-2.55,3.05l-19.26,23.03c-6.33,7.77-12.74,15.45-18.97,23.32
		c-6.3,7.8-12.48,15.71-18.66,23.63c-6.12,7.98-12.25,15.95-18.15,24.15c7.03-7.06,13.83-14.35,20.64-21.63
		c6.76-7.33,13.51-14.69,20.15-22.15c0.74-0.82,1.46-1.65,2.2-2.47l21.66-10.11l-5.8,17.7l18.75-17.7l16.42,15.17l-3.48-15.17
		l18.71,6.79c1.72,1.94,3.42,3.89,5.16,5.8c6.64,7.46,13.38,14.81,20.14,22.15c6.81,7.28,13.62,14.57,20.66,21.63
		c-5.91-8.2-12.03-16.17-18.16-24.15c-6.17-7.93-12.36-15.83-18.66-23.63c-2.09-2.64-4.22-5.24-6.34-7.85
		c9.53-9.21,18.89-18.59,28.26-27.98c10.05-10.18,20.08-20.38,30.01-30.68c5.77-5.91,11.47-11.89,17.18-17.87l25.64-11.97l-5.8,17.7
		l18.75-17.7l16.42,15.17l-3.47-15.17l24.39,8.85l-5.72-6.75c1.17,1.19,2.34,2.4,3.53,3.58c6.17,6.28,12.46,12.45,18.75,18.6
		c5.82,5.58,11.65,11.17,17.62,16.58c-5.37,6.59-10.8,13.14-16.07,19.83c-0.52,0.64-1.02,1.29-1.53,1.93l-2.79,3.29l0.29-0.13
		c-4.39,5.54-8.75,11.12-13.08,16.72c-5.61,7.38-11.23,14.74-16.62,22.33c6.51-6.46,12.8-13.14,19.11-19.82
		c6.25-6.73,12.48-13.48,18.6-20.33c1.37-1.5,2.7-3.02,4.05-4.54l15.58-7.27l-5.8,17.7l18.74-17.7l16.42,15.17l-3.47-15.17
		l16.24,5.89c7.43,8.54,14.83,17.12,22.35,25.56c8.9,10.13,17.9,20.15,26.92,30.15c9.08,9.95,18.15,19.91,27.44,29.63
		C566.28,400.76,557.89,390.13,549.51,379.47z"/>
</g>
<g>
	<text transform="matrix(1.0047 0 0 1 156.2769 545.9688)" class="st2 st3 st4">Outpic</text>
</g>
</svg>
